PathFileType	4	(X/Y/Z)	C:/Users/opensim2020/Desktop/walking_exp_matlab/subject03_walking08_straight_04.trc	
DataRate	CameraRate	NumFrames	NumMarkers	Units	OrigDataRate	OrigDataStartFrame	OrigNumFrames	
100.00	100.00	5	51	mm	100.00	3617	303	
Frame#	Time	LFHD			RFHD			LBHD			RBHD			C7			T10			CLAV			STRN			RBAK			LSHO			LUPA			LELB			LFRM			LWRA			LWRB			LFIN			RSHO			RUPA			RELB			RFRM			RWRA			RWRB			RFIN			LASI			RASI			LPSI			RPSI			LTHI			LKNE			LTIB			LANK			LHEE			LTOE			RTHI			RKNE			RTIB			RANK			RHEE			RTOE			*39			*40			*41			*42			*43			*44			*45			*46			*47			*48			*49			*50			
		X1	Y1	Z1	X2	Y2	Z2	X3	Y3	Z3	X4	Y4	Z4	X5	Y5	Z5	X6	Y6	Z6	X7	Y7	Z7	X8	Y8	Z8	X9	Y9	Z9	X10	Y10	Z10	X11	Y11	Z11	X12	Y12	Z12	X13	Y13	Z13	X14	Y14	Z14	X15	Y15	Z15	X16	Y16	Z16	X17	Y17	Z17	X18	Y18	Z18	X19	Y19	Z19	X20	Y20	Z20	X21	Y21	Z21	X22	Y22	Z22	X23	Y23	Z23	X24	Y24	Z24	X25	Y25	Z25	X26	Y26	Z26	X27	Y27	Z27	X28	Y28	Z28	X29	Y29	Z29	X30	Y30	Z30	X31	Y31	Z31	X32	Y32	Z32	X33	Y33	Z33	X34	Y34	Z34	X35	Y35	Z35	X36	Y36	Z36	X37	Y37	Z37	X38	Y38	Z38	X39	Y39	Z39	X40	Y40	Z40	X41	Y41	Z41	X42	Y42	Z42	X43	Y43	Z43	X44	Y44	Z44	X45	Y45	Z45	X46	Y46	Z46	X47	Y47	Z47	X48	Y48	Z48	X49	Y49	Z49	X50	Y50	Z50	X51	Y51	Z51	

266	2.650	1517.99146	-792.88287	1607.71899	1386.02551	-772.94385	1614.41638	1531.39246	-665.64514	1563.54065	1401.27502	-650.86780	1569.57886	1469.82690	-625.18097	1406.43628	1465.88574	-595.89581	1090.93420	1458.74622	-745.74597	1328.56091	1453.16956	-790.43713	1165.14380	1372.94177	-565.00824	1233.15784	1619.25525	-710.33441	1360.06238	1683.17554	-689.74933	1160.17773	1692.84668	-687.78784	1036.40540	1688.84875	-712.88611	908.50867	1654.04309	-734.11334	792.92865	1703.02966	-707.12390	794.79163	1690.12476	-724.20166	713.03412	1303.13574	-693.67688	1355.24084	1230.37158	-723.83160	1135.35388	1219.08130	-761.87915	1028.70349	1222.51184	-811.55475	901.19141	1263.33398	-864.45520	819.15564	1219.52466	-836.42181	803.75806	1232.94788	-877.39905	743.21759	1557.89673	-780.05652	931.99890	1321.83533	-746.80292	927.33539	1533.35034	-612.18713	951.58868	1384.11145	-593.74506	959.76721	1606.50769	-779.80023	635.72961	1564.46338	-828.53436	465.54651	1571.78967	-831.40259	274.39886	1538.73975	-874.85034	69.03804	1501.49438	-839.66028	33.64328	1508.87415	-1029.31677	39.48812	1292.38416	-648.49005	637.63489	1324.45093	-627.86035	458.45288	1328.70251	-505.71576	304.58118	1380.64209	-385.43665	126.59589	1434.01636	-335.20355	114.94069	1389.56384	-499.03049	36.83472	1480.79297	-704.44324	1669.80518																																	 
267	2.660	1519.09375	-801.61707	1609.42224	1387.15979	-781.15747	1616.07202	1533.03088	-674.48529	1565.26184	1403.05127	-659.10419	1571.24268	1471.65967	-633.90564	1407.79639	1466.54346	-605.08929	1092.32532	1460.09814	-754.56085	1330.32935	1454.31726	-799.57684	1167.07422	1374.90466	-573.58997	1234.47986	1620.66602	-720.00476	1361.57617	1684.51880	-701.30688	1161.54761	1693.90088	-700.26947	1037.75537	1689.66785	-725.53943	909.90326	1654.63635	-746.42712	794.30505	1703.98218	-720.12659	796.19678	1690.77124	-737.05328	714.37573	1304.65332	-701.79663	1357.00195	1232.05981	-731.01508	1136.76611	1220.65601	-768.00134	1029.69495	1223.27698	-815.40149	901.17352	1263.37305	-866.69312	817.86456	1219.52051	-838.53168	803.28540	1232.37427	-878.22406	741.87830	1559.02478	-789.15680	934.10803	1323.02686	-756.58997	928.43097	1533.76746	-621.18103	954.15503	1384.38245	-603.25720	961.16272	1608.11780	-786.90936	637.76697	1564.96960	-834.55969	467.28513	1572.42651	-834.59515	275.44232	1539.07239	-874.87677	69.00626	1501.71570	-839.65259	33.49438	1508.38232	-1029.32361	39.19101	1292.76416	-659.33356	637.95673	1324.13635	-639.67999	458.65286	1328.46375	-514.37036	307.17914	1380.62109	-390.56213	131.98634	1434.49963	-340.51447	122.29449	1389.71277	-500.06421	37.01280	1481.81812	-712.29907	1670.88501																																	 
268	2.670	1520.01563	-810.26727	1611.17847	1388.38306	-789.38354	1617.84265	1534.70947	-683.27411	1567.16321	1404.79590	-667.28009	1573.09119	1473.54248	-642.58856	1409.42969	1467.08105	-614.11688	1094.04944	1461.42444	-763.40063	1332.22937	1455.46948	-808.66266	1169.02014	1376.32373	-582.29352	1235.95911	1622.01367	-729.36823	1363.27747	1685.82703	-712.84949	1163.16785	1694.94348	-712.85541	1039.37170	1690.49011	-738.41113	911.57318	1655.33386	-758.96674	795.95477	1705.04578	-733.36841	797.89441	1691.60657	-750.02582	715.92004	1306.10071	-709.93005	1358.89050	1233.74463	-737.97681	1138.32068	1222.14221	-773.98505	1030.92932	1223.96240	-819.11151	901.47430	1263.10730	-869.21899	817.09271	1219.45313	-840.36755	803.17230	1231.64172	-878.84131	740.79242	1560.24341	-798.06549	936.31335	1324.33948	-765.98407	929.63959	1533.78674	-630.05798	956.77679	1384.50439	-612.79004	962.66125	1609.61768	-793.97412	639.77234	1565.83362	-839.71527	468.82233	1573.39050	-837.04828	276.20847	1538.97107	-874.67450	69.25219	1501.93469	-838.85913	34.02498	1508.78540	-1029.22961	38.98636	1293.15137	-670.34088	638.30048	1323.44824	-652.53955	458.76871	1328.46313	-523.98566	309.85883	1380.86279	-396.47424	137.77640	1435.36597	-347.02625	130.05211	1389.96045	-501.18585	37.22271	1483.60815	-721.44519	1673.30847																																	 
269	2.680	1521.22180	-818.97333	1612.89246	1389.52087	-797.46771	1619.46729	1536.34155	-691.89752	1569.03442	1406.58154	-675.35938	1575.01062	1475.18042	-651.47449	1411.10083	1467.73682	-622.96655	1095.67004	1462.65979	-772.07721	1334.12134	1456.62463	-817.74829	1170.94617	1377.60706	-591.09808	1237.54370	1623.26978	-738.68738	1365.14624	1687.05701	-724.38135	1164.92004	1695.93823	-725.53607	1041.15479	1691.30396	-751.36072	913.35669	1656.05042	-771.70636	797.72736	1706.17017	-746.95276	799.78149	1692.55090	-763.28088	717.63818	1307.57056	-718.13538	1360.92383	1235.30310	-744.87445	1140.03394	1223.61401	-779.96185	1032.25366	1224.57410	-822.86780	902.09503	1262.70337	-871.73480	816.48206	1219.06091	-842.14923	803.34540	1230.90588	-879.28717	739.93835	1561.54407	-806.83350	938.51172	1325.75281	-775.13794	930.94550	1533.86633	-638.84906	959.26849	1384.65674	-622.16370	964.29980	1610.86121	-800.63470	641.46350	1567.20093	-843.82068	469.83597	1574.34644	-838.58478	276.56146	1539.91895	-874.64850	69.45306	1502.35681	-839.42041	33.37289	1509.07275	-1029.16602	38.78474	1293.43506	-681.76654	638.68164	1322.39697	-666.20612	458.90500	1328.16711	-534.26801	312.70538	1381.28137	-403.51889	143.66588	1436.70508	-354.53555	138.38899	1390.13196	-501.99973	37.34720	1485.20129	-730.11584	1674.69873																																	 
270	2.690	1521.99646	-827.26709	1614.38562	1390.66956	-805.50281	1621.06335	1537.91150	-700.41467	1570.79517	1408.23645	-683.38708	1576.74194	1476.73218	-660.08832	1412.57043	1468.53064	-631.71179	1097.20813	1463.85376	-780.70850	1335.94202	1457.74548	-826.80695	1172.87671	1378.84949	-599.61694	1239.28796	1624.38013	-747.63519	1366.94177	1688.28137	-735.82526	1166.77246	1696.95337	-738.22986	1043.08008	1692.15869	-764.67084	915.50830	1656.97656	-784.68939	799.71204	1707.47205	-760.74042	801.85480	1693.49585	-776.83270	719.43439	1308.93896	-726.30945	1362.94202	1236.77502	-751.80585	1141.78967	1224.95581	-785.86328	1033.71497	1225.09851	-826.54767	902.82892	1262.40710	-873.97357	815.94165	1218.75806	-843.93701	803.73456	1230.10461	-879.65924	739.25610	1562.89502	-815.47510	940.50928	1327.06848	-784.89417	932.58746	1534.02869	-647.71771	961.49506	1384.99060	-631.59711	965.83856	1612.18359	-806.57190	642.91254	1568.82178	-847.28540	470.50037	1575.20239	-839.73663	276.91815	1540.24878	-874.41479	69.53794	1502.65723	-839.34583	33.26356	1509.11389	-1029.05029	38.71769	1293.53040	-693.35181	639.04950	1321.09631	-680.49280	458.90338	1327.80823	-545.27155	315.72815	1382.03552	-411.31723	149.85492	1438.14294	-363.52396	146.78035	1390.42493	-503.47650	37.79064	1486.58240	-738.80707	1676.37109																																	 
